<?xml version="1.0" standalone="no"?>
<!DOCTYPE svg PUBLIC "-//W3C//DTD SVG 20010904//EN"
 "http://www.w3.org/TR/2001/REC-SVG-20010904/DTD/svg10.dtd">
<svg version="1.0" xmlns="http://www.w3.org/2000/svg"
 width="512.000000pt" height="512.000000pt" viewBox="0 0 512.000000 512.000000"
 preserveAspectRatio="xMidYMid meet">
<metadata>
Created by potrace 1.14, written by Peter Selinger 2001-2017
</metadata>
<g transform="translate(0.000000,512.000000) scale(0.100000,-0.100000)"
fill="#000000" stroke="none">
<path d="M488 4410 c-191 -33 -355 -153 -433 -318 -58 -123 -56 -47 -53 -1558
l3 -1389 28 -71 c39 -99 117 -198 205 -261 83 -59 153 -88 250 -103 45 -7 743
-10 2117 -8 l2050 3 67 23 c141 47 283 171 342 296 59 125 57 47 54 1562 l-3
1389 -28 69 c-67 168 -210 301 -382 352 -57 18 -163 19 -2115 20 -1130 1
-2076 -2 -2102 -6z m1714 -882 c-15 -15 -16 -58 -1 -58 5 0 7 -4 4 -10 -9 -14
-32 -12 -38 3 -7 18 19 77 35 77 9 0 9 -3 0 -12z m187 -50 c-6 -27 -15 -48
-20 -48 -12 0 -11 26 2 74 15 54 30 32 18 -26z m96 45 c4 -10 10 -61 15 -114
4 -53 14 -109 21 -125 19 -38 53 -43 74 -10 19 28 10 78 -25 134 -25 41 -25
77 0 102 23 23 48 16 74 -22 21 -30 20 -55 -3 -61 -18 -4 -18 -6 -2 -68 21
-74 37 -89 81 -72 34 13 37 6 15 -37 -17 -32 -44 -41 -41 -13 2 31 -32 26 -49
-6 -30 -59 -91 -69 -125 -21 -12 17 -26 30 -32 30 -6 0 -28 -16 -49 -35 -81
-73 -149 -30 -149 92 0 67 -26 53 -53 -27 -18 -52 -26 -66 -45 -68 -30 -5 -51
14 -73 63 -19 41 -24 133 -10 170 l8 20 6 -20 c3 -11 11 -50 17 -87 19 -105
48 -115 75 -25 27 90 80 165 102 143 4 -4 10 -48 11 -97 4 -81 6 -91 29 -109
34 -26 39 -25 75 10 32 33 33 41 12 186 -9 60 23 111 41 67z m275 -35 c47 -43
60 -47 60 -19 0 51 41 17 89 -73 15 -29 18 -43 10 -53 -22 -26 -1 -123 41
-188 49 -78 118 -201 136 -244 16 -38 19 -111 5 -111 -5 0 -12 8 -15 18 -3 9
-37 71 -76 137 l-70 120 0 -169 c0 -140 -3 -173 -17 -197 -32 -53 -40 -43 -35
45 4 77 -11 340 -24 417 -4 22 -40 83 -95 162 -76 108 -89 133 -89 167 0 35 2
38 19 32 11 -4 38 -24 61 -44z m-1439 6 c7 -19 6 -37 -3 -63 l-13 -36 -3 34
c-2 19 -10 44 -18 55 -19 28 -18 36 6 36 13 0 24 -10 31 -26z m295 -30 c-7
-17 -57 -19 -74 -2 -7 7 -12 21 -12 31 0 17 2 18 16 6 13 -10 17 -10 25 2 6
10 9 10 9 2 0 -20 30 -15 31 5 1 11 3 8 6 -6 3 -13 2 -30 -1 -38z m435 46 c20
-11 26 -45 10 -54 -5 -3 -11 1 -15 9 -7 20 -36 19 -36 0 0 -9 11 -20 24 -25
13 -5 27 -13 30 -18 3 -5 -25 -42 -63 -81 -62 -64 -72 -71 -107 -71 l-39 1 40
32 c22 17 60 51 85 74 43 40 44 42 27 60 -22 25 -22 59 1 72 21 13 20 13 43 1z
m-591 -25 c5 -14 14 -71 19 -127 7 -68 15 -106 25 -117 27 -27 39 0 20 45 -9
21 -17 60 -17 87 -2 107 51 65 61 -49 4 -59 8 -67 38 -91 37 -27 64 -25 64 6
0 10 -13 48 -30 83 -33 70 -37 100 -15 118 20 17 41 7 65 -32 24 -39 25 -49 5
-42 -18 7 -18 10 0 -50 8 -27 15 -69 15 -93 0 -38 -4 -46 -32 -63 -39 -24 -77
-26 -104 -5 -24 18 -53 19 -56 3 -1 -7 -2 -69 -2 -138 -1 -88 -5 -132 -15
-150 -18 -32 -20 -26 -29 105 -8 120 -1 108 -82 145 -11 5 -16 31 -20 100 -3
57 -9 95 -16 97 -16 5 -34 -51 -34 -107 0 -60 -18 -85 -53 -76 -39 9 -50 39
-53 146 -4 89 -3 93 11 65 8 -16 14 -40 15 -53 0 -30 26 -92 39 -92 11 0 13 8
31 90 16 69 55 126 76 109 10 -8 14 -34 14 -89 0 -91 5 -110 31 -110 24 0 25
45 4 157 -16 84 -19 136 -8 146 12 13 24 7 33 -18z m307 13 c17 -21 54 -129
48 -138 -3 -5 -13 -6 -21 -3 -17 6 -16 -5 10 -192 11 -73 13 -80 33 -77 16 2
22 -3 25 -20 5 -35 54 -38 69 -4 15 33 36 40 49 16 15 -27 38 -25 46 4 9 37
34 42 34 7 0 -89 -32 -130 -87 -111 -25 9 -36 7 -66 -10 -28 -17 -40 -19 -56
-11 -11 6 -23 11 -28 11 -4 0 -8 -42 -8 -92 0 -106 -16 -147 -82 -210 -87 -84
-234 -122 -316 -83 -55 26 -81 88 -74 172 4 36 9 68 12 72 11 10 25 -24 25
-62 0 -56 23 -92 70 -111 50 -20 73 -20 139 0 97 28 171 125 187 243 6 48 5
53 -11 49 -13 -2 -23 -18 -30 -48 -25 -96 -69 -156 -137 -185 -77 -32 -154
-11 -183 51 -18 38 -20 112 -3 151 11 27 12 27 21 -27 12 -77 23 -99 54 -111
41 -15 105 6 157 53 40 34 68 90 53 104 -2 3 -21 -3 -40 -12 -30 -14 -41 -15
-62 -6 -22 10 -25 18 -25 61 0 97 79 144 141 85 33 -31 59 -26 59 12 0 14 -11
87 -25 163 -39 221 -41 242 -20 258 23 16 30 16 42 1z m1237 -10 c18 -25 21
-95 6 -118 -7 -11 -10 -7 -10 18 0 19 -9 47 -21 63 -20 29 -20 59 0 59 5 0 17
-10 25 -22z m143 -56 c15 -39 15 -46 1 -69 -13 -22 -13 -35 -1 -101 16 -97 33
-300 33 -408 0 -76 -3 -89 -37 -155 -60 -115 -158 -173 -208 -123 -15 16 -12
19 43 50 33 19 82 55 111 82 41 38 51 54 51 80 0 47 -39 485 -50 565 -12 85 4
172 26 142 8 -10 21 -38 31 -63z m137 -86 c-17 -13 -16 -22 11 -202 31 -210
38 -365 17 -402 -8 -13 -15 -22 -17 -20 -2 2 -9 64 -15 137 -6 74 -27 220 -46
325 -34 181 -38 265 -17 299 3 5 23 -21 45 -58 37 -62 39 -67 22 -79z m215 90
c27 -28 32 -39 23 -48 -9 -9 -8 -16 5 -30 9 -10 19 -18 23 -18 3 0 6 30 6 68
-1 37 4 69 9 71 6 2 25 -24 44 -59 26 -48 30 -64 20 -70 -9 -6 -12 -26 -10
-61 2 -43 10 -61 44 -107 53 -70 56 -58 28 107 -25 142 -26 174 -6 191 9 7 17
11 19 9 9 -10 39 -75 52 -112 13 -37 13 -43 -1 -53 -14 -10 -14 -24 1 -145
l17 -134 63 -95 c60 -92 83 -152 70 -186 -5 -13 -19 2 -54 57 l-47 74 -5 -55
c-6 -57 -18 -88 -43 -109 -13 -10 -15 8 -19 126 -4 134 -5 139 -33 180 -17 23
-34 42 -40 43 -6 0 -10 -61 -10 -163 0 -181 -7 -207 -58 -234 -36 -18 -63 -12
-112 27 -60 48 -72 41 -94 -56 -7 -30 -23 -62 -36 -74 -24 -22 -24 -22 -57 -4
-59 34 -99 156 -68 204 7 11 10 6 10 -22 0 -65 32 -118 70 -118 14 0 29 21 55
77 58 126 86 141 131 73 32 -47 65 -53 90 -15 19 29 21 72 10 267 l-8 147 -57
68 c-102 123 -101 121 -101 180 0 48 2 53 18 44 9 -5 33 -25 51 -45z m431 -28
c37 -59 38 -63 19 -70 -14 -5 -18 -14 -14 -30 28 -129 45 -408 35 -557 -10
-128 -61 -184 -180 -198 -76 -9 -64 15 33 71 26 15 61 46 77 68 27 37 30 49
30 117 0 88 -21 280 -52 468 -18 111 -19 137 -8 162 7 17 14 31 16 31 3 0 22
-28 44 -62z m-112 -11 c17 -20 25 -89 13 -117 l-10 -25 0 30 c-1 17 -10 45
-21 63 -11 18 -20 39 -20 47 0 18 24 20 38 2z m-819 -118 c6 10 10 8 15 -5 6
-16 8 -16 22 2 14 18 14 17 12 -11 -3 -28 -6 -30 -43 -30 -37 0 -40 2 -43 29
-3 27 -2 28 13 16 13 -11 18 -11 24 -1z m-994 -19 c-8 -26 11 -51 33 -44 14 5
13 2 -2 -10 -27 -22 -43 -20 -56 5 -9 16 -8 26 5 45 19 29 29 31 20 4z m1493
-14 c2 -10 -3 -23 -12 -28 -11 -6 -16 -23 -16 -58 0 -28 -4 -50 -10 -50 -5 0
-28 16 -50 36 -44 40 -55 84 -21 84 11 0 21 -5 23 -12 3 -7 12 -9 22 -5 11 5
16 13 12 23 -3 9 -3 20 0 25 10 17 49 5 52 -15z m-1192 -142 c13 -29 28 -84
34 -121 6 -38 15 -72 19 -76 4 -4 25 10 47 31 28 28 56 44 99 57 88 25 90 27
93 78 4 58 47 101 90 91 38 -8 72 -49 72 -85 0 -69 -57 -120 -149 -135 -24 -4
-40 -11 -38 -18 2 -7 51 -12 140 -14 l137 -3 -15 -29 c-8 -16 -15 -36 -15 -45
0 -21 -33 -32 -146 -50 -116 -19 -123 -22 -130 -51 -9 -35 1 -52 41 -71 26
-13 35 -23 33 -38 -3 -17 -10 -20 -49 -19 -66 3 -143 39 -188 90 -21 24 -43
44 -49 44 -5 0 -31 -25 -58 -57 -63 -74 -125 -113 -180 -113 -47 0 -90 28
-105 67 -7 19 -14 23 -27 18 -75 -33 -191 -74 -207 -75 -17 0 -16 4 10 25 17
13 72 50 124 82 69 42 97 66 106 88 30 74 28 73 33 43 2 -16 7 -28 12 -28 5 0
36 26 69 58 76 71 80 103 26 171 -39 49 -42 66 -19 99 21 30 37 28 68 -9 29
-34 34 -59 11 -59 -14 0 -13 -4 1 -32 9 -18 17 -55 18 -84 1 -65 -43 -135
-120 -194 -55 -41 -63 -57 -42 -78 48 -48 200 49 245 156 18 43 6 125 -32 226
-28 74 -30 97 -13 114 17 17 27 6 54 -54z m177 10 c15 -1 27 2 27 7 0 5 5 9
10 9 16 0 11 -47 -6 -54 -25 -10 -59 -7 -72 6 -16 16 -16 52 1 41 6 -4 24 -8
40 -9z m1064 -56 c-4 -13 -32 -41 -69 -65 -71 -48 -78 -51 -78 -24 0 12 26 37
73 69 39 27 74 48 76 47 2 -2 1 -14 -2 -27z m-2110 -25 c4 -12 -45 -40 -151
-87 -31 -14 -56 -21 -56 -15 0 15 73 83 110 102 38 19 91 19 97 0z m2113 -94
c12 -42 5 -99 -10 -99 -5 0 -7 7 -3 15 3 9 -2 36 -12 61 -17 44 -14 81 5 69 5
-3 14 -24 20 -46z m-1596 -45 c3 -9 6 -32 5 -52 l-1 -37 -8 33 c-4 19 -13 39
-19 45 -15 15 -14 27 3 27 8 0 17 -7 20 -16z m-719 -243 c4 -11 9 -10 25 4 20
18 20 17 20 -15 0 -40 -24 -70 -50 -63 -27 7 -41 64 -30 122 16 83 25 91 28
26 1 -33 5 -66 7 -74z m1515 -4 c4 -5 18 -4 29 3 12 6 32 9 44 7 19 -3 18 -5
-13 -19 -67 -30 -80 -31 -80 -10 0 21 -23 46 -33 35 -4 -3 -7 -1 -7 5 0 6 10
18 23 27 21 15 22 15 25 -12 2 -15 7 -32 12 -36z m964 -2 c-5 -21 -3 -25 15
-25 12 0 21 -4 21 -10 0 -11 -53 -40 -75 -40 -20 0 -19 9 2 32 14 16 15 23 5
38 -17 27 -15 30 13 30 22 0 25 -3 19 -25z m-324 -685 c15 -15 20 -33 20 -70
l0 -50 120 0 c157 0 160 -2 160 -135 0 -82 -3 -98 -20 -115 -45 -45 -100 -11
-108 68 l-5 52 -73 0 -74 0 0 -49 c0 -42 -4 -53 -26 -70 -56 -44 -104 -12
-104 68 l0 50 -742 3 c-717 4 -745 5 -810 25 -71 21 -128 54 -147 85 -11 17
20 18 844 18 l855 0 0 52 c0 60 19 88 62 88 15 0 37 -9 48 -20z"/>
<path d="M2790 3401 c0 -12 31 -43 37 -37 9 9 -9 46 -23 46 -8 0 -14 -4 -14
-9z"/>
<path d="M1620 3015 c-15 -18 -5 -35 20 -35 23 0 32 13 24 34 -8 20 -28 21
-44 1z"/>
<path d="M2640 3075 c0 -21 39 -40 54 -25 8 8 6 15 -8 26 -25 18 -46 18 -46
-1z"/>
<path d="M2374 2845 c-15 -39 46 -130 91 -137 17 -2 21 3 23 36 3 32 8 40 33
49 40 15 36 49 -6 58 -61 13 -135 10 -141 -6z"/>
</g>
</svg>
